<svg fill="none" height="32" viewBox="0 0 137 32" width="137" xmlns="http://www.w3.org/2000/svg"><path d="M19.8545 0C20.6862 0.0210149 21.4714 0.036291 22.105 0.144635C23.4316 0.470359 24.6815 1.16788 25.3312 2.56403C25.3312 2.56403 25.4772 2.8123 25.5834 3.5278C25.6897 4.24331 25.851 6.22871 25.851 6.22871C26.0736 9.52597 26.0977 12.9553 26.1333 16.1869C26.0759 17.4517 25.7104 18.6401 25.1561 19.7265C23.8009 22.3824 21.3176 24.4289 19.4502 25.4937C14.8286 27.762 10.3591 29.7816 6.57576 31.4086C2.57062 32.8553 0.752685 31.4032 0.14975 29.6793C0.0278512 29.2101 -0.0144154 28.7271 0.00420672 28.281C0.00420672 28.281 0.0410556 27.2117 0.318134 25.4554C0.595213 23.6992 2.63707 11.0536 4.83014 4.57111C5.38373 3.0734 7.44712 0.261147 12.3558 0H19.8545Z" fill="#1EBFBF"></path><path d="M19.0354 5.9173C19.3918 5.9173 19.6807 6.19617 19.6807 6.54017V8.72022C19.6807 9.06422 19.3918 9.34309 19.0354 9.34309H18.7128C16.5745 9.34309 14.8411 11.0163 14.8411 13.0803V16.4282C14.8411 20.3843 11.5188 23.5913 7.42057 23.5913H7.09793C6.74156 23.5913 6.45267 23.3124 6.45267 22.9684L6.45267 20.7883C6.45267 20.4443 6.74156 20.1655 7.09793 20.1655H7.42057C9.5588 20.1655 11.2922 18.4923 11.2922 16.4282V13.0803C11.2922 9.12429 14.6145 5.9173 18.7127 5.9173L19.0354 5.9173Z" fill="#F9F9F9"></path><path d="M130.583 10.0407C130.583 11.7941 132.009 13.2364 133.783 13.2364C135.557 13.2364 137 11.7941 137 10.0407C137 8.2788 135.557 6.83643 133.783 6.83643C132.009 6.83643 130.583 8.2788 130.583 10.0407ZM131.322 10.0407C131.322 8.62428 132.4 7.51875 133.783 7.51875C135.165 7.51875 136.244 8.62428 136.244 10.0407C136.244 11.4486 135.165 12.5541 133.783 12.5541C132.4 12.5541 131.322 11.4486 131.322 10.0407ZM134.305 11.7422H135.218L134.522 10.4121C134.922 10.2394 135.191 9.868 135.191 9.41024C135.191 8.78838 134.67 8.28744 134 8.28744H132.627V11.7422H133.453V10.5417H133.705L134.305 11.7422ZM133.453 9.868V8.96112H133.853C134.166 8.96112 134.357 9.13386 134.357 9.41888C134.357 9.69527 134.166 9.868 133.853 9.868H133.453Z" fill="#16191C"></path><path d="M128.739 13.5704H124.624L120.604 17.8825V6.83643H117.458V25.1637H120.604V22.1004L121.904 20.7337L124.979 25.1637H128.833L124.08 18.4481L128.739 13.5704Z" fill="#16191C"></path><path d="M116.292 13.5377C116.058 13.5142 115.832 13.5377 115.575 13.5377C114.595 13.5377 113.002 13.7731 112.302 15.3028V13.5377H109.292V25.1636H112.395V19.8684C112.395 17.3738 113.701 16.4473 115.287 16.4473C115.567 16.4473 116.292 16.4473 116.292 16.4473V13.5377Z" fill="#16191C"></path><path d="M97.3333 21.7779C97.3333 23.5394 98.8352 25.1636 101.299 25.1636C103.012 25.1636 104.115 24.6683 104.702 23.7761L104.808 25.1636H107.542V23.3414V17.8052C107.542 15.5404 106.181 13.5273 102.52 13.5273C99.4219 13.5273 97.7557 15.4718 97.568 17.2333L100.337 17.8052C100.431 16.8215 101.182 15.9751 102.543 15.9751C103.857 15.9751 104.491 16.6385 104.491 17.4392C104.491 17.8281 104.28 17.866 103.623 17.9575L100.783 18.3692C98.8587 18.6438 97.3333 19.7647 97.3333 21.7779ZM101.956 22.8988C100.947 22.8988 100.454 22.2583 100.454 21.5949C100.454 20.7256 101.088 20.2909 101.886 20.1765L104.491 19.7876V20.5733C104.491 22.5636 103.271 22.8988 101.956 22.8988Z" fill="#16191C"></path><path d="M88.7769 18.3538C88.8471 17.0814 89.6188 16.0917 90.9283 16.0917C92.425 16.0917 93.0564 17.1049 93.0564 18.4009V25.1637H96.1666V17.859C96.1666 15.3141 94.8103 13.555 91.8871 13.555C90.788 13.555 89.5252 13.6411 88.7769 14.5365V6.83643H85.6667V25.1637H88.7769V18.3538Z" fill="#16191C"></path><path d="M75.1666 21.8174C75.308 23.0722 76.4865 25.1636 79.9747 25.1636C83.0151 25.1636 84.5 23.3858 84.5 21.5934C84.5 19.9802 83.3451 18.6582 81.0589 18.2101L79.4091 17.874C78.7727 17.762 78.3484 17.4259 78.3484 16.8882C78.3484 16.2608 79.0084 15.7903 79.8333 15.7903C81.1532 15.7903 81.6481 16.6193 81.7424 17.2691L84.3586 16.7089C84.2171 15.5214 83.1094 13.5273 79.8097 13.5273C77.3114 13.5273 75.473 15.1629 75.473 17.1346C75.473 18.6806 76.4865 19.9577 78.7256 20.4283L80.2575 20.7644C81.1532 20.9436 81.5067 21.3469 81.5067 21.8398C81.5067 22.4224 81.0118 22.9377 79.9747 22.9377C78.6077 22.9377 77.9242 22.1311 77.8535 21.2573L75.1666 21.8174Z" fill="#16191C"></path><path clip-rule="evenodd" d="M72.0092 11.4698C72.0088 11.454 72.0086 11.4381 72.0086 11.4221C72.0086 10.3778 72.8574 9.53122 73.9044 9.53122H74.5833V6.83643H73.0528C70.6851 6.83643 68.9016 8.6112 68.9016 11.1428V13.539H67V16.4482H68.9016V25.1637H72.0092V16.4482H74.5833V13.539H72.0092V11.4807C72.0092 11.4771 72.0092 11.4734 72.0092 11.4698Z" fill="#16191C" fill-rule="evenodd"></path><path d="M65.8333 13.5377C65.6 13.5142 65.3737 13.5377 65.1171 13.5377C64.1371 13.5377 62.5433 13.7731 61.8433 15.3028V13.5377H58.8333V25.1636H61.9366V19.8684C61.9366 17.3738 63.2423 16.4473 64.829 16.4473C65.109 16.4473 65.8333 16.4473 65.8333 16.4473V13.5377Z" fill="#16191C"></path><path d="M54.2425 25.1636H57.0833V23.0672V13.5273H53.9864V20.3112C53.9864 21.6539 53.1496 22.2899 51.7758 22.2899C50.3321 22.2899 49.6802 21.2534 49.6802 19.9579V13.5273H46.5833V20.5939C46.5833 23.1143 48.1666 25.1636 50.9375 25.1636C52.1483 25.1636 53.5207 24.9988 54.1494 23.9152L54.2425 25.1636Z" fill="#16191C"></path><path d="M45.1673 11.3272C44.7683 9.37464 43.1224 6.83636 38.833 6.83636C35.4913 6.83636 32.6733 9.17939 32.6733 12.2546C32.6733 14.8661 34.4938 16.6478 37.3118 17.2091L39.7807 17.6972C41.1523 17.9657 41.9253 19.0376 41.9253 20.0383C41.9253 21.2586 40.9029 22.1616 39.0575 22.1616C36.5637 22.1616 35.3417 20.624 35.1921 18.9156L32 19.7454C32.2743 22.2105 34.3442 25.1636 39.0325 25.1636C43.1473 25.1636 45.4167 22.4789 45.4167 19.8186C45.4167 17.378 43.6959 15.0369 40.4789 14.4268L38.0101 13.963C36.7133 13.719 36.0898 12.9624 36.0898 12.0105C36.0898 10.8634 37.1871 9.81395 38.858 9.81395C41.1024 9.81395 41.9004 11.3027 42.075 12.2546L45.1673 11.3272Z" fill="#16191C"></path></svg>