<svg xmlns="http://www.w3.org/2000/svg" xmlns:xlink="http://www.w3.org/1999/xlink" width="1024" zoomAndPan="magnify" viewBox="0 0 768 767.999994" height="1024" preserveAspectRatio="xMidYMid meet" version="1.0"><defs><clipPath id="f5c6ccde87"><path d="M 1.046875 35.859375 L 766.9375 35.859375 L 766.9375 731.859375 L 1.046875 731.859375 Z M 1.046875 35.859375 " clip-rule="nonzero"/></clipPath></defs><g clip-path="url(#f5c6ccde87)"><path fill="#1062fe" d="M 636.078125 471.125 C 630.8125 471.125 625.632812 471.53125 620.53125 472.125 C 584.023438 450.804688 550.515625 418.046875 525.773438 375.617188 C 500.8125 332.835938 488.851562 287.179688 488.515625 244.695312 C 505.007812 222.859375 514.898438 195.789062 514.898438 166.351562 C 514.898438 94.28125 456.289062 35.859375 384 35.859375 C 311.710938 35.859375 253.101562 94.28125 253.101562 166.351562 C 253.101562 195.03125 262.492188 221.453125 278.203125 242.992188 C 278.1875 285.953125 266.234375 332.257812 240.945312 375.617188 C 216.265625 417.9375 182.882812 450.625 146.492188 471.953125 C 141.703125 471.421875 136.867188 471.109375 131.945312 471.109375 C 59.65625 471.109375 1.046875 529.53125 1.046875 601.59375 C 1.046875 673.664062 59.65625 732.117188 131.945312 732.117188 C 185 732.117188 230.570312 700.570312 251.117188 655.320312 C 288.265625 633.8125 334.15625 620.898438 384.164062 620.898438 C 433.953125 620.898438 479.679688 633.726562 516.734375 655.070312 C 537.234375 700.460938 582.898438 732.109375 636.054688 732.109375 C 708.351562 732.109375 766.9375 673.671875 766.9375 601.601562 C 766.953125 529.539062 708.367188 471.125 636.078125 471.125 Z M 250.8125 547.226562 C 247.0625 539.101562 242.507812 531.445312 237.234375 524.320312 C 237.882812 482.3125 249.90625 437.304688 274.53125 395.085938 C 300.1875 351.117188 335.273438 317.539062 373.335938 296.328125 C 376.859375 296.609375 380.398438 296.867188 384 296.867188 C 387.195312 296.867188 390.328125 296.617188 393.484375 296.382812 C 431.507812 317.609375 466.5625 351.148438 492.179688 395.085938 C 517.15625 437.882812 529.140625 483.554688 529.476562 526.0625 C 524.679688 532.773438 520.523438 539.945312 517.0625 547.515625 C 479.945312 568.96875 434.101562 581.867188 384.179688 581.867188 C 334.023438 581.867188 288.015625 568.851562 250.8125 547.226562 Z M 250.8125 547.226562 " fill-opacity="1" fill-rule="nonzero"/></g></svg>