<?xml version="1.0" encoding="utf-8"?>
<svg xmlns="http://www.w3.org/2000/svg" xmlns:xlink="http://www.w3.org/1999/xlink" id="e3wXyRuxHEv1" viewBox="0 0 1440 789" shape-rendering="geometricPrecision" text-rendering="geometricPrecision">
<style>
#e3wXyRuxHEv9_to {animation: e3wXyRuxHEv9_to__to 12800ms linear infinite normal forwards}@keyframes e3wXyRuxHEv9_to__to { 0% {transform: translate(722.9px,649.496708px);animation-timing-function: cubic-bezier(0.42,0,0.58,1)} 3.125% {transform: translate(722.9px,641.496708px);animation-timing-function: cubic-bezier(0.42,0,0.58,1)} 6.25% {transform: translate(722.9px,649.496708px);animation-timing-function: cubic-bezier(0.42,0,0.58,1)} 9.375% {transform: translate(722.8px,642.650342px);animation-timing-function: cubic-bezier(0.42,0,0.58,1)} 12.5% {transform: translate(722.9px,649.496708px);animation-timing-function: cubic-bezier(0.42,0,0.58,1)} 15.625% {transform: translate(722.9px,641.496708px);animation-timing-function: cubic-bezier(0.42,0,0.58,1)} 18.75% {transform: translate(722.9px,649.496708px);animation-timing-function: cubic-bezier(0.42,0,0.58,1)} 21.875% {transform: translate(722.8px,642.650342px);animation-timing-function: cubic-bezier(0.42,0,0.58,1)} 25% {transform: translate(722.9px,649.496708px);animation-timing-function: cubic-bezier(0.42,0,0.58,1)} 28.125% {transform: translate(722.9px,641.496708px);animation-timing-function: cubic-bezier(0.42,0,0.58,1)} 31.25% {transform: translate(722.9px,649.496708px);animation-timing-function: cubic-bezier(0.42,0,0.58,1)} 34.375% {transform: translate(722.8px,642.650342px);animation-timing-function: cubic-bezier(0.42,0,0.58,1)} 37.5% {transform: translate(722.9px,649.496708px);animation-timing-function: cubic-bezier(0.42,0,0.58,1)} 40.625% {transform: translate(722.9px,641.496708px);animation-timing-function: cubic-bezier(0.42,0,0.58,1)} 43.75% {transform: translate(722.9px,649.496708px);animation-timing-function: cubic-bezier(0.42,0,0.58,1)} 46.875% {transform: translate(722.8px,642.650342px);animation-timing-function: cubic-bezier(0.42,0,0.58,1)} 50% {transform: translate(722.9px,649.496708px);animation-timing-function: cubic-bezier(0.42,0,0.58,1)} 53.125% {transform: translate(722.9px,641.496708px);animation-timing-function: cubic-bezier(0.42,0,0.58,1)} 56.25% {transform: translate(722.9px,649.496708px);animation-timing-function: cubic-bezier(0.42,0,0.58,1)} 59.375% {transform: translate(722.8px,642.650342px);animation-timing-function: cubic-bezier(0.42,0,0.58,1)} 62.5% {transform: translate(722.9px,649.496708px);animation-timing-function: cubic-bezier(0.42,0,0.58,1)} 65.625% {transform: translate(722.9px,641.496708px);animation-timing-function: cubic-bezier(0.42,0,0.58,1)} 68.75% {transform: translate(722.9px,649.496708px);animation-timing-function: cubic-bezier(0.42,0,0.58,1)} 71.875% {transform: translate(722.8px,642.650342px);animation-timing-function: cubic-bezier(0.42,0,0.58,1)} 75% {transform: translate(722.9px,649.496708px);animation-timing-function: cubic-bezier(0.42,0,0.58,1)} 78.125% {transform: translate(722.9px,641.496708px);animation-timing-function: cubic-bezier(0.42,0,0.58,1)} 81.25% {transform: translate(722.9px,649.496708px);animation-timing-function: cubic-bezier(0.42,0,0.58,1)} 84.375% {transform: translate(722.8px,642.650342px);animation-timing-function: cubic-bezier(0.42,0,0.58,1)} 87.5% {transform: translate(722.9px,649.496708px);animation-timing-function: cubic-bezier(0.42,0,0.58,1)} 90.625% {transform: translate(722.9px,641.496708px);animation-timing-function: cubic-bezier(0.42,0,0.58,1)} 93.75% {transform: translate(722.9px,649.496708px);animation-timing-function: cubic-bezier(0.42,0,0.58,1)} 96.875% {transform: translate(722.8px,642.650342px);animation-timing-function: cubic-bezier(0.42,0,0.58,1)} 100% {transform: translate(722.9px,649.496708px)}} #e3wXyRuxHEv10_tr {animation: e3wXyRuxHEv10_tr__tr 12800ms linear infinite normal forwards}@keyframes e3wXyRuxHEv10_tr__tr { 0% {transform: translate(723.991657px,574.605286px) rotate(0deg)} 6.25% {transform: translate(723.991657px,574.605286px) rotate(0deg);animation-timing-function: cubic-bezier(0.42,0,0.58,1)} 9.375% {transform: translate(723.991657px,574.605286px) rotate(12.870566deg);animation-timing-function: cubic-bezier(0.42,0,0.58,1)} 13.28125% {transform: translate(723.991657px,574.605286px) rotate(12.870566deg);animation-timing-function: cubic-bezier(0.42,0,0.58,1)} 17.1875% {transform: translate(723.991657px,574.605286px) rotate(0deg)} 31.25% {transform: translate(723.991657px,574.605286px) rotate(0deg);animation-timing-function: cubic-bezier(0.42,0,0.58,1)} 34.375% {transform: translate(723.991657px,574.605286px) rotate(12.870566deg);animation-timing-function: cubic-bezier(0.42,0,0.58,1)} 38.28125% {transform: translate(723.991657px,574.605286px) rotate(12.870566deg);animation-timing-function: cubic-bezier(0.42,0,0.58,1)} 42.1875% {transform: translate(723.991657px,574.605286px) rotate(0deg)} 56.25% {transform: translate(723.991657px,574.605286px) rotate(0deg);animation-timing-function: cubic-bezier(0.42,0,0.58,1)} 59.375% {transform: translate(723.991657px,574.605286px) rotate(12.870566deg);animation-timing-function: cubic-bezier(0.42,0,0.58,1)} 63.28125% {transform: translate(723.991657px,574.605286px) rotate(12.870566deg);animation-timing-function: cubic-bezier(0.42,0,0.58,1)} 67.1875% {transform: translate(723.991657px,574.605286px) rotate(0deg)} 81.25% {transform: translate(723.991657px,574.605286px) rotate(0deg);animation-timing-function: cubic-bezier(0.42,0,0.58,1)} 84.375% {transform: translate(723.991657px,574.605286px) rotate(12.870566deg);animation-timing-function: cubic-bezier(0.42,0,0.58,1)} 88.28125% {transform: translate(723.991657px,574.605286px) rotate(12.870566deg);animation-timing-function: cubic-bezier(0.42,0,0.58,1)} 92.1875% {transform: translate(723.991657px,574.605286px) rotate(0deg)} 100% {transform: translate(723.991657px,574.605286px) rotate(0deg)}} #e3wXyRuxHEv20_tr {animation: e3wXyRuxHEv20_tr__tr 12800ms linear infinite normal forwards}@keyframes e3wXyRuxHEv20_tr__tr { 0% {transform: translate(722.9px,642.3px) rotate(-21.783303deg);animation-timing-function: cubic-bezier(0.42,0,0.375,1)} 6.25% {transform: translate(722.9px,642.3px) rotate(12deg);animation-timing-function: cubic-bezier(0.42,0,1,1)} 9.375% {transform: translate(722.9px,642.3px) rotate(-30.20044deg)} 12.5% {transform: translate(722.9px,642.3px) rotate(-21.783303deg);animation-timing-function: cubic-bezier(0.42,0,0.375,1)} 18.75% {transform: translate(722.9px,642.3px) rotate(12deg);animation-timing-function: cubic-bezier(0.42,0,1,1)} 21.875% {transform: translate(722.9px,642.3px) rotate(-30.20044deg)} 25% {transform: translate(722.9px,642.3px) rotate(-21.783303deg);animation-timing-function: cubic-bezier(0.42,0,0.375,1)} 31.25% {transform: translate(722.9px,642.3px) rotate(12deg);animation-timing-function: cubic-bezier(0.42,0,1,1)} 34.375% {transform: translate(722.9px,642.3px) rotate(-30.20044deg)} 37.5% {transform: translate(722.9px,642.3px) rotate(-21.783303deg);animation-timing-function: cubic-bezier(0.42,0,0.375,1)} 43.75% {transform: translate(722.9px,642.3px) rotate(12deg);animation-timing-function: cubic-bezier(0.42,0,1,1)} 46.875% {transform: translate(722.9px,642.3px) rotate(-30.20044deg)} 50% {transform: translate(722.9px,642.3px) rotate(-21.783303deg);animation-timing-function: cubic-bezier(0.42,0,0.375,1)} 56.25% {transform: translate(722.9px,642.3px) rotate(12deg);animation-timing-function: cubic-bezier(0.42,0,1,1)} 59.375% {transform: translate(722.9px,642.3px) rotate(-30.20044deg)} 62.5% {transform: translate(722.9px,642.3px) rotate(-21.783303deg);animation-timing-function: cubic-bezier(0.42,0,0.375,1)} 68.75% {transform: translate(722.9px,642.3px) rotate(12deg);animation-timing-function: cubic-bezier(0.42,0,1,1)} 71.875% {transform: translate(722.9px,642.3px) rotate(-30.20044deg)} 75% {transform: translate(722.9px,642.3px) rotate(-21.783303deg);animation-timing-function: cubic-bezier(0.42,0,0.375,1)} 81.25% {transform: translate(722.9px,642.3px) rotate(12deg);animation-timing-function: cubic-bezier(0.42,0,1,1)} 84.375% {transform: translate(722.9px,642.3px) rotate(-30.20044deg)} 87.5% {transform: translate(722.9px,642.3px) rotate(-21.783303deg);animation-timing-function: cubic-bezier(0.42,0,0.375,1)} 93.75% {transform: translate(722.9px,642.3px) rotate(12deg);animation-timing-function: cubic-bezier(0.42,0,1,1)} 96.875% {transform: translate(722.9px,642.3px) rotate(-30.20044deg)} 100% {transform: translate(722.9px,642.3px) rotate(-21.783303deg)}} #e3wXyRuxHEv21_tr {animation: e3wXyRuxHEv21_tr__tr 12800ms linear infinite normal forwards}@keyframes e3wXyRuxHEv21_tr__tr { 0% {transform: translate(723px,686.6px) rotate(0deg);animation-timing-function: cubic-bezier(0.42,0,0.58,1)} 3.125% {transform: translate(723px,686.6px) rotate(0deg)} 6.25% {transform: translate(723px,686.6px) rotate(10deg);animation-timing-function: cubic-bezier(0.42,0,0.58,1)} 9.375% {transform: translate(723px,686.6px) rotate(80deg)} 12.5% {transform: translate(723px,686.6px) rotate(0deg);animation-timing-function: cubic-bezier(0.42,0,0.58,1)} 15.625% {transform: translate(723px,686.6px) rotate(0deg)} 18.75% {transform: translate(723px,686.6px) rotate(10deg);animation-timing-function: cubic-bezier(0.42,0,0.58,1)} 21.875% {transform: translate(723px,686.6px) rotate(80deg)} 25% {transform: translate(723px,686.6px) rotate(0deg);animation-timing-function: cubic-bezier(0.42,0,0.58,1)} 28.125% {transform: translate(723px,686.6px) rotate(0deg)} 31.25% {transform: translate(723px,686.6px) rotate(10deg);animation-timing-function: cubic-bezier(0.42,0,0.58,1)} 34.375% {transform: translate(723px,686.6px) rotate(80deg)} 37.5% {transform: translate(723px,686.6px) rotate(0deg);animation-timing-function: cubic-bezier(0.42,0,0.58,1)} 40.625% {transform: translate(723px,686.6px) rotate(0deg)} 43.75% {transform: translate(723px,686.6px) rotate(10deg);animation-timing-function: cubic-bezier(0.42,0,0.58,1)} 46.875% {transform: translate(723px,686.6px) rotate(80deg)} 50% {transform: translate(723px,686.6px) rotate(0deg);animation-timing-function: cubic-bezier(0.42,0,0.58,1)} 53.125% {transform: translate(723px,686.6px) rotate(0deg)} 56.25% {transform: translate(723px,686.6px) rotate(10deg);animation-timing-function: cubic-bezier(0.42,0,0.58,1)} 59.375% {transform: translate(723px,686.6px) rotate(80deg)} 62.5% {transform: translate(723px,686.6px) rotate(0deg);animation-timing-function: cubic-bezier(0.42,0,0.58,1)} 65.625% {transform: translate(723px,686.6px) rotate(0deg)} 68.75% {transform: translate(723px,686.6px) rotate(10deg);animation-timing-function: cubic-bezier(0.42,0,0.58,1)} 71.875% {transform: translate(723px,686.6px) rotate(80deg)} 75% {transform: translate(723px,686.6px) rotate(0deg);animation-timing-function: cubic-bezier(0.42,0,0.58,1)} 78.125% {transform: translate(723px,686.6px) rotate(0deg)} 81.25% {transform: translate(723px,686.6px) rotate(10deg);animation-timing-function: cubic-bezier(0.42,0,0.58,1)} 84.375% {transform: translate(723px,686.6px) rotate(80deg)} 87.5% {transform: translate(723px,686.6px) rotate(0deg);animation-timing-function: cubic-bezier(0.42,0,0.58,1)} 90.625% {transform: translate(723px,686.6px) rotate(0deg)} 93.75% {transform: translate(723px,686.6px) rotate(10deg);animation-timing-function: cubic-bezier(0.42,0,0.58,1)} 96.875% {transform: translate(723px,686.6px) rotate(80deg)} 100% {transform: translate(723px,686.6px) rotate(0deg)}} #e3wXyRuxHEv27_tr {animation: e3wXyRuxHEv27_tr__tr 12800ms linear infinite normal forwards}@keyframes e3wXyRuxHEv27_tr__tr { 0% {transform: translate(720px,757.1px) rotate(21.866929deg);animation-timing-function: cubic-bezier(0.7,0,0.67,1)} 3.125% {transform: translate(720px,757.1px) rotate(0deg)} 6.25% {transform: translate(720px,757.1px) rotate(-22deg);animation-timing-function: cubic-bezier(0.42,0,0.58,1)} 9.375% {transform: translate(720px,757.1px) rotate(7.977873deg);animation-timing-function: cubic-bezier(0.42,0,1,1)} 11.71875% {transform: translate(720px,757.1px) rotate(-10.301208deg);animation-timing-function: cubic-bezier(0.7,0,0.67,1)} 12.5% {transform: translate(720px,757.1px) rotate(21.866929deg);animation-timing-function: cubic-bezier(0.7,0,0.67,1)} 15.625% {transform: translate(720px,757.1px) rotate(0deg)} 18.75% {transform: translate(720px,757.1px) rotate(-22deg);animation-timing-function: cubic-bezier(0.42,0,0.58,1)} 21.875% {transform: translate(720px,757.1px) rotate(7.977873deg);animation-timing-function: cubic-bezier(0.42,0,1,1)} 24.21875% {transform: translate(720px,757.1px) rotate(-10.301208deg);animation-timing-function: cubic-bezier(0.7,0,0.67,1)} 25% {transform: translate(720px,757.1px) rotate(21.866929deg);animation-timing-function: cubic-bezier(0.7,0,0.67,1)} 28.125% {transform: translate(720px,757.1px) rotate(0deg)} 31.25% {transform: translate(720px,757.1px) rotate(-22deg);animation-timing-function: cubic-bezier(0.42,0,0.58,1)} 34.375% {transform: translate(720px,757.1px) rotate(7.977873deg);animation-timing-function: cubic-bezier(0.42,0,1,1)} 36.71875% {transform: translate(720px,757.1px) rotate(-10.301208deg);animation-timing-function: cubic-bezier(0.7,0,0.67,1)} 37.5% {transform: translate(720px,757.1px) rotate(21.866929deg);animation-timing-function: cubic-bezier(0.7,0,0.67,1)} 40.625% {transform: translate(720px,757.1px) rotate(0deg)} 43.75% {transform: translate(720px,757.1px) rotate(-22deg);animation-timing-function: cubic-bezier(0.42,0,0.58,1)} 46.875% {transform: translate(720px,757.1px) rotate(7.977873deg);animation-timing-function: cubic-bezier(0.42,0,1,1)} 49.21875% {transform: translate(720px,757.1px) rotate(-10.301208deg);animation-timing-function: cubic-bezier(0.7,0,0.67,1)} 50% {transform: translate(720px,757.1px) rotate(21.866929deg);animation-timing-function: cubic-bezier(0.7,0,0.67,1)} 53.125% {transform: translate(720px,757.1px) rotate(0deg)} 56.25% {transform: translate(720px,757.1px) rotate(-22deg);animation-timing-function: cubic-bezier(0.42,0,0.58,1)} 59.375% {transform: translate(720px,757.1px) rotate(7.977873deg);animation-timing-function: cubic-bezier(0.42,0,1,1)} 61.71875% {transform: translate(720px,757.1px) rotate(-10.301208deg);animation-timing-function: cubic-bezier(0.7,0,0.67,1)} 62.5% {transform: translate(720px,757.1px) rotate(21.866929deg);animation-timing-function: cubic-bezier(0.7,0,0.67,1)} 65.625% {transform: translate(720px,757.1px) rotate(0deg)} 68.75% {transform: translate(720px,757.1px) rotate(-22deg);animation-timing-function: cubic-bezier(0.42,0,0.58,1)} 71.875% {transform: translate(720px,757.1px) rotate(7.977873deg);animation-timing-function: cubic-bezier(0.42,0,1,1)} 74.21875% {transform: translate(720px,757.1px) rotate(-10.301208deg);animation-timing-function: cubic-bezier(0.7,0,0.67,1)} 75% {transform: translate(720px,757.1px) rotate(21.866929deg);animation-timing-function: cubic-bezier(0.7,0,0.67,1)} 78.125% {transform: translate(720px,757.1px) rotate(0deg)} 81.25% {transform: translate(720px,757.1px) rotate(-22deg);animation-timing-function: cubic-bezier(0.42,0,0.58,1)} 84.375% {transform: translate(720px,757.1px) rotate(7.977873deg);animation-timing-function: cubic-bezier(0.42,0,1,1)} 86.71875% {transform: translate(720px,757.1px) rotate(-10.301208deg);animation-timing-function: cubic-bezier(0.7,0,0.67,1)} 87.5% {transform: translate(720px,757.1px) rotate(21.866929deg);animation-timing-function: cubic-bezier(0.7,0,0.67,1)} 90.625% {transform: translate(720px,757.1px) rotate(0deg)} 93.75% {transform: translate(720px,757.1px) rotate(-22deg);animation-timing-function: cubic-bezier(0.42,0,0.58,1)} 96.875% {transform: translate(720px,757.1px) rotate(7.977873deg);animation-timing-function: cubic-bezier(0.42,0,1,1)} 99.21875% {transform: translate(720px,757.1px) rotate(-10.301208deg);animation-timing-function: cubic-bezier(0.7,0,0.67,1)} 100% {transform: translate(720px,757.1px) rotate(21.866929deg)}} #e3wXyRuxHEv37_tr {animation: e3wXyRuxHEv37_tr__tr 12800ms linear infinite normal forwards}@keyframes e3wXyRuxHEv37_tr__tr { 0% {transform: translate(722.9px,642.3px) rotate(12deg);animation-timing-function: cubic-bezier(0.42,0,1,1)} 3.125% {transform: translate(722.9px,642.3px) rotate(-30.20044deg)} 6.25% {transform: translate(722.9px,642.3px) rotate(-21.783303deg);animation-timing-function: cubic-bezier(0.42,0,0.375,1)} 12.5% {transform: translate(722.9px,642.3px) rotate(12deg);animation-timing-function: cubic-bezier(0.42,0,1,1)} 15.625% {transform: translate(722.9px,642.3px) rotate(-30.20044deg)} 18.75% {transform: translate(722.9px,642.3px) rotate(-21.783303deg);animation-timing-function: cubic-bezier(0.42,0,0.375,1)} 25% {transform: translate(722.9px,642.3px) rotate(12deg);animation-timing-function: cubic-bezier(0.42,0,1,1)} 28.125% {transform: translate(722.9px,642.3px) rotate(-30.20044deg)} 31.25% {transform: translate(722.9px,642.3px) rotate(-21.783303deg);animation-timing-function: cubic-bezier(0.42,0,0.375,1)} 37.5% {transform: translate(722.9px,642.3px) rotate(12deg);animation-timing-function: cubic-bezier(0.42,0,1,1)} 40.625% {transform: translate(722.9px,642.3px) rotate(-30.20044deg)} 43.75% {transform: translate(722.9px,642.3px) rotate(-21.783303deg);animation-timing-function: cubic-bezier(0.42,0,0.375,1)} 50% {transform: translate(722.9px,642.3px) rotate(12deg);animation-timing-function: cubic-bezier(0.42,0,1,1)} 53.125% {transform: translate(722.9px,642.3px) rotate(-30.20044deg)} 56.25% {transform: translate(722.9px,642.3px) rotate(-21.783303deg);animation-timing-function: cubic-bezier(0.42,0,0.375,1)} 62.5% {transform: translate(722.9px,642.3px) rotate(12deg);animation-timing-function: cubic-bezier(0.42,0,1,1)} 65.625% {transform: translate(722.9px,642.3px) rotate(-30.20044deg)} 68.75% {transform: translate(722.9px,642.3px) rotate(-21.783303deg);animation-timing-function: cubic-bezier(0.42,0,0.375,1)} 75% {transform: translate(722.9px,642.3px) rotate(12deg);animation-timing-function: cubic-bezier(0.42,0,1,1)} 78.125% {transform: translate(722.9px,642.3px) rotate(-30.20044deg)} 81.25% {transform: translate(722.9px,642.3px) rotate(-21.783303deg);animation-timing-function: cubic-bezier(0.42,0,0.375,1)} 87.5% {transform: translate(722.9px,642.3px) rotate(12deg);animation-timing-function: cubic-bezier(0.42,0,1,1)} 90.625% {transform: translate(722.9px,642.3px) rotate(-30.20044deg)} 93.75% {transform: translate(722.9px,642.3px) rotate(-21.783303deg);animation-timing-function: cubic-bezier(0.42,0,0.375,1)} 100% {transform: translate(722.9px,642.3px) rotate(12deg)}} #e3wXyRuxHEv38_tr {animation: e3wXyRuxHEv38_tr__tr 12800ms linear infinite normal forwards}@keyframes e3wXyRuxHEv38_tr__tr { 0% {transform: translate(723px,686.6px) rotate(10deg);animation-timing-function: cubic-bezier(0.42,0,0.58,1)} 3.125% {transform: translate(723px,686.6px) rotate(80deg)} 6.25% {transform: translate(723px,686.6px) rotate(0deg);animation-timing-function: cubic-bezier(0.42,0,0.58,1)} 9.375% {transform: translate(723px,686.6px) rotate(0deg)} 12.5% {transform: translate(723px,686.6px) rotate(10deg);animation-timing-function: cubic-bezier(0.42,0,0.58,1)} 15.625% {transform: translate(723px,686.6px) rotate(80deg)} 18.75% {transform: translate(723px,686.6px) rotate(0deg);animation-timing-function: cubic-bezier(0.42,0,0.58,1)} 21.875% {transform: translate(723px,686.6px) rotate(0deg)} 25% {transform: translate(723px,686.6px) rotate(10deg);animation-timing-function: cubic-bezier(0.42,0,0.58,1)} 28.125% {transform: translate(723px,686.6px) rotate(80deg)} 31.25% {transform: translate(723px,686.6px) rotate(0deg);animation-timing-function: cubic-bezier(0.42,0,0.58,1)} 34.375% {transform: translate(723px,686.6px) rotate(0deg)} 37.5% {transform: translate(723px,686.6px) rotate(10deg);animation-timing-function: cubic-bezier(0.42,0,0.58,1)} 40.625% {transform: translate(723px,686.6px) rotate(80deg)} 43.75% {transform: translate(723px,686.6px) rotate(0deg);animation-timing-function: cubic-bezier(0.42,0,0.58,1)} 46.875% {transform: translate(723px,686.6px) rotate(0deg)} 50% {transform: translate(723px,686.6px) rotate(10deg);animation-timing-function: cubic-bezier(0.42,0,0.58,1)} 53.125% {transform: translate(723px,686.6px) rotate(80deg)} 56.25% {transform: translate(723px,686.6px) rotate(0deg);animation-timing-function: cubic-bezier(0.42,0,0.58,1)} 59.375% {transform: translate(723px,686.6px) rotate(0deg)} 62.5% {transform: translate(723px,686.6px) rotate(10deg);animation-timing-function: cubic-bezier(0.42,0,0.58,1)} 65.625% {transform: translate(723px,686.6px) rotate(80deg)} 68.75% {transform: translate(723px,686.6px) rotate(0deg);animation-timing-function: cubic-bezier(0.42,0,0.58,1)} 71.875% {transform: translate(723px,686.6px) rotate(0deg)} 75% {transform: translate(723px,686.6px) rotate(10deg);animation-timing-function: cubic-bezier(0.42,0,0.58,1)} 78.125% {transform: translate(723px,686.6px) rotate(80deg)} 81.25% {transform: translate(723px,686.6px) rotate(0deg);animation-timing-function: cubic-bezier(0.42,0,0.58,1)} 84.375% {transform: translate(723px,686.6px) rotate(0deg)} 87.5% {transform: translate(723px,686.6px) rotate(10deg);animation-timing-function: cubic-bezier(0.42,0,0.58,1)} 90.625% {transform: translate(723px,686.6px) rotate(80deg)} 93.75% {transform: translate(723px,686.6px) rotate(0deg);animation-timing-function: cubic-bezier(0.42,0,0.58,1)} 96.875% {transform: translate(723px,686.6px) rotate(0deg)} 100% {transform: translate(723px,686.6px) rotate(10deg)}} #e3wXyRuxHEv44_tr {animation: e3wXyRuxHEv44_tr__tr 12800ms linear infinite normal forwards}@keyframes e3wXyRuxHEv44_tr__tr { 0% {transform: translate(720px,757.1px) rotate(-22deg);animation-timing-function: cubic-bezier(0.42,0,0.58,1)} 3.125% {transform: translate(720px,757.1px) rotate(7.977873deg);animation-timing-function: cubic-bezier(0.42,0,1,1)} 4.6875% {transform: translate(720px,757.1px) rotate(-15.499103deg)} 6.25% {transform: translate(720px,757.1px) rotate(7.018382deg);animation-timing-function: cubic-bezier(0.7,0,0.67,1)} 7.03125% {transform: translate(720px,757.1px) rotate(20.625014deg)} 9.375% {transform: translate(720px,757.1px) rotate(0deg)} 12.5% {transform: translate(720px,757.1px) rotate(-22deg);animation-timing-function: cubic-bezier(0.42,0,0.58,1)} 15.625% {transform: translate(720px,757.1px) rotate(7.977873deg);animation-timing-function: cubic-bezier(0.42,0,1,1)} 17.1875% {transform: translate(720px,757.1px) rotate(-15.499103deg)} 18.75% {transform: translate(720px,757.1px) rotate(7.018382deg);animation-timing-function: cubic-bezier(0.7,0,0.67,1)} 19.53125% {transform: translate(720px,757.1px) rotate(20.625014deg)} 21.875% {transform: translate(720px,757.1px) rotate(0deg)} 25% {transform: translate(720px,757.1px) rotate(-22deg);animation-timing-function: cubic-bezier(0.42,0,0.58,1)} 28.125% {transform: translate(720px,757.1px) rotate(7.977873deg);animation-timing-function: cubic-bezier(0.42,0,1,1)} 29.6875% {transform: translate(720px,757.1px) rotate(-15.499103deg)} 31.25% {transform: translate(720px,757.1px) rotate(7.018382deg);animation-timing-function: cubic-bezier(0.7,0,0.67,1)} 32.03125% {transform: translate(720px,757.1px) rotate(20.625014deg)} 34.375% {transform: translate(720px,757.1px) rotate(0deg)} 37.5% {transform: translate(720px,757.1px) rotate(-22deg);animation-timing-function: cubic-bezier(0.42,0,0.58,1)} 40.625% {transform: translate(720px,757.1px) rotate(7.977873deg);animation-timing-function: cubic-bezier(0.42,0,1,1)} 42.1875% {transform: translate(720px,757.1px) rotate(-15.499103deg)} 43.75% {transform: translate(720px,757.1px) rotate(7.018382deg);animation-timing-function: cubic-bezier(0.7,0,0.67,1)} 44.53125% {transform: translate(720px,757.1px) rotate(20.625014deg)} 46.875% {transform: translate(720px,757.1px) rotate(0deg)} 50% {transform: translate(720px,757.1px) rotate(-22deg);animation-timing-function: cubic-bezier(0.42,0,0.58,1)} 53.125% {transform: translate(720px,757.1px) rotate(7.977873deg);animation-timing-function: cubic-bezier(0.42,0,1,1)} 54.6875% {transform: translate(720px,757.1px) rotate(-15.499103deg)} 56.25% {transform: translate(720px,757.1px) rotate(7.018382deg);animation-timing-function: cubic-bezier(0.7,0,0.67,1)} 57.03125% {transform: translate(720px,757.1px) rotate(20.625014deg)} 59.375% {transform: translate(720px,757.1px) rotate(0deg)} 62.5% {transform: translate(720px,757.1px) rotate(-22deg);animation-timing-function: cubic-bezier(0.42,0,0.58,1)} 65.625% {transform: translate(720px,757.1px) rotate(7.977873deg);animation-timing-function: cubic-bezier(0.42,0,1,1)} 67.1875% {transform: translate(720px,757.1px) rotate(-15.499103deg)} 68.75% {transform: translate(720px,757.1px) rotate(7.018382deg);animation-timing-function: cubic-bezier(0.7,0,0.67,1)} 69.53125% {transform: translate(720px,757.1px) rotate(20.625014deg)} 71.875% {transform: translate(720px,757.1px) rotate(0deg)} 75% {transform: translate(720px,757.1px) rotate(-22deg);animation-timing-function: cubic-bezier(0.42,0,0.58,1)} 78.125% {transform: translate(720px,757.1px) rotate(7.977873deg);animation-timing-function: cubic-bezier(0.42,0,1,1)} 79.6875% {transform: translate(720px,757.1px) rotate(-15.499103deg)} 81.25% {transform: translate(720px,757.1px) rotate(7.018382deg);animation-timing-function: cubic-bezier(0.7,0,0.67,1)} 82.03125% {transform: translate(720px,757.1px) rotate(20.625014deg)} 84.375% {transform: translate(720px,757.1px) rotate(0deg)} 87.5% {transform: translate(720px,757.1px) rotate(-22deg);animation-timing-function: cubic-bezier(0.42,0,0.58,1)} 90.625% {transform: translate(720px,757.1px) rotate(7.977873deg);animation-timing-function: cubic-bezier(0.42,0,1,1)} 92.1875% {transform: translate(720px,757.1px) rotate(-15.499103deg)} 93.75% {transform: translate(720px,757.1px) rotate(7.018382deg);animation-timing-function: cubic-bezier(0.7,0,0.67,1)} 94.53125% {transform: translate(720px,757.1px) rotate(20.625014deg)} 96.875% {transform: translate(720px,757.1px) rotate(0deg)} 100% {transform: translate(720px,757.1px) rotate(-22deg)}} #e3wXyRuxHEv55_tr {animation: e3wXyRuxHEv55_tr__tr 12800ms linear infinite normal forwards}@keyframes e3wXyRuxHEv55_tr__tr { 0% {transform: translate(715.7px,584.014711px) rotate(0deg);animation-timing-function: cubic-bezier(0.42,0,0.58,1)} 6.25% {transform: translate(715.7px,584.014711px) rotate(10deg);animation-timing-function: cubic-bezier(0.42,0,0.03,0.995)} 9.375% {transform: translate(715.7px,584.014711px) rotate(-17deg);animation-timing-function: cubic-bezier(0.735,-0.01,0.365,0.995)} 17.1875% {transform: translate(715.7px,584.014711px) rotate(10deg);animation-timing-function: cubic-bezier(0.42,0,0.58,1)} 25% {transform: translate(715.7px,584.014711px) rotate(0deg);animation-timing-function: cubic-bezier(0.42,0,0.58,1)} 31.25% {transform: translate(715.7px,584.014711px) rotate(10deg);animation-timing-function: cubic-bezier(0.42,0,0.03,0.995)} 34.375% {transform: translate(715.7px,584.014711px) rotate(-17deg);animation-timing-function: cubic-bezier(0.735,-0.01,0.365,0.995)} 42.1875% {transform: translate(715.7px,584.014711px) rotate(10deg);animation-timing-function: cubic-bezier(0.42,0,0.58,1)} 50% {transform: translate(715.7px,584.014711px) rotate(0deg);animation-timing-function: cubic-bezier(0.42,0,0.58,1)} 56.25% {transform: translate(715.7px,584.014711px) rotate(10deg);animation-timing-function: cubic-bezier(0.42,0,0.03,0.995)} 59.375% {transform: translate(715.7px,584.014711px) rotate(-17deg);animation-timing-function: cubic-bezier(0.735,-0.01,0.365,0.995)} 67.1875% {transform: translate(715.7px,584.014711px) rotate(10deg);animation-timing-function: cubic-bezier(0.42,0,0.58,1)} 75% {transform: translate(715.7px,584.014711px) rotate(0deg);animation-timing-function: cubic-bezier(0.42,0,0.58,1)} 81.25% {transform: translate(715.7px,584.014711px) rotate(10deg);animation-timing-function: cubic-bezier(0.42,0,0.03,0.995)} 84.375% {transform: translate(715.7px,584.014711px) rotate(-17deg);animation-timing-function: cubic-bezier(0.735,-0.01,0.365,0.995)} 92.1875% {transform: translate(715.7px,584.014711px) rotate(10deg);animation-timing-function: cubic-bezier(0.42,0,0.58,1)} 100% {transform: translate(715.7px,584.014711px) rotate(0deg)}} #e3wXyRuxHEv57_tr {animation: e3wXyRuxHEv57_tr__tr 12800ms linear infinite normal forwards}@keyframes e3wXyRuxHEv57_tr__tr { 0% {transform: translate(761.215959px,596.167947px) rotate(0deg)} 9.375% {transform: translate(761.215959px,596.167947px) rotate(0deg);animation-timing-function: cubic-bezier(0.68,-0.01,0.215,0.99)} 11.71875% {transform: translate(761.215959px,596.167947px) rotate(20.88435deg);animation-timing-function: cubic-bezier(0.42,0,0.58,1)} 14.84375% {transform: translate(761.215959px,596.167947px) rotate(0deg)} 34.375% {transform: translate(761.215959px,596.167947px) rotate(0deg);animation-timing-function: cubic-bezier(0.68,-0.01,0.215,0.99)} 36.71875% {transform: translate(761.215959px,596.167947px) rotate(20.88435deg);animation-timing-function: cubic-bezier(0.42,0,0.58,1)} 39.84375% {transform: translate(761.215959px,596.167947px) rotate(0deg)} 59.375% {transform: translate(761.215959px,596.167947px) rotate(0deg);animation-timing-function: cubic-bezier(0.68,-0.01,0.215,0.99)} 61.71875% {transform: translate(761.215959px,596.167947px) rotate(20.88435deg);animation-timing-function: cubic-bezier(0.42,0,0.58,1)} 64.84375% {transform: translate(761.215959px,596.167947px) rotate(0deg)} 84.375% {transform: translate(761.215959px,596.167947px) rotate(0deg);animation-timing-function: cubic-bezier(0.68,-0.01,0.215,0.99)} 86.71875% {transform: translate(761.215959px,596.167947px) rotate(20.88435deg);animation-timing-function: cubic-bezier(0.42,0,0.58,1)} 89.84375% {transform: translate(761.215959px,596.167947px) rotate(0deg)} 100% {transform: translate(761.215959px,596.167947px) rotate(0deg)}}
</style>
<g transform="matrix(2.5 0 0 2.5-1080-1181.376455)">
    
    <g id="e3wXyRuxHEv9_to" transform="translate(722.9,649.496708)">
      <g transform="translate(-722.799996,-642.3)">
        <g id="e3wXyRuxHEv10_tr" transform="translate(723.991657,574.605286) rotate(0)">
          <g transform="translate(-723.991649,-574.605286)">
            <path d="M715.9,563.4c-1.6-3-6.8-8.9-5.2-18.2c1.6-9.4,12.5-12.5,19.3-10.9s8.9,6.3,13.6,6.3-6,12.8-7.8,21.9c-.5,2.6-13.6,4.7-14.6,4.7-1.1-.2-3.7-.8-5.3-3.8Z" fill="#001d2f"/>
            <path d="M739.1,555.9c1.6,0,2.9-1.7,2.9-3.9c0-2.1-1.3-3.9-2.9-3.9s-2.9,1.7-2.9,3.9s1.3,3.9,2.9,3.9Z" fill="none" stroke="#fff" stroke-width="1.0896" stroke-linecap="round" stroke-linejoin="round"/>
            <path d="M738.3,545.6c-3,.9-11.5,4.4-13.6,3.7s-3.7,7-4.7,6c-.7-2.9-4.3-2.3-4.3.8s1.7,4,3.1,4.7c-.3,4.6-.863169,8.684136-1.363169,13.884136c3.8,1.7,9.563169.215864,13.463169-.884136-.5-2.6-.9-3.9-1-6.3c6.3,2.1,8.9-2.1,8.5-8.6c0-.2.7-.6,1.4-.9s1.8-1.2,1.6-1.9c-.7-2.7-2.9-8.6-3.1-10.5Z" fill="#ebbe83"/>
            <path d="M730,567.5c-.8-.2-1.6-.6-2.2-1.2-1.8-1.5-1.9-.4-1.5.1.7.8,2.6,2.5,3.8,3.1l-.1-2Z" fill="#001d2f"/>
            <path d="M719.1,557.2l1.9.4.7,1.5" fill="none" stroke="#001d30" stroke-width="1.0896" stroke-linecap="round" stroke-linejoin="round"/>
            <path d="M737.4,553.6c0-2.4-1.5-4.4-3.3-4.4s-3.3,2-3.3,4.4c0,.4,0,.7.1,1.1.4,1.9,1.7,3.3,3.2,3.3c1.8,0,3.3-2,3.3-4.4Z" fill="none" stroke="#001d30" stroke-width="1.0896" stroke-linecap="round" stroke-linejoin="round"/>
            <path d="M737.4,553.6l2-.8" fill="none" stroke="#001d30" stroke-width="1.0896" stroke-linecap="round" stroke-linejoin="round"/>
            <path d="M722.9,552.9l-3.3-.8c-1.5-.3-3,.2-3.9,1.5" fill="none" stroke="#fff" stroke-width="1.0896" stroke-linecap="round" stroke-linejoin="round"/>
            <path d="M730.9,554.7l-8-1.9" fill="none" stroke="#001d30" stroke-width="1.0896" stroke-linecap="round" stroke-linejoin="round"/>
          </g>
        </g>
        <g id="e3wXyRuxHEv20_tr" transform="translate(722.9,642.3) rotate(-21.783303)">
          <g transform="translate(-722.9,-642.3)">
            <g id="e3wXyRuxHEv21_tr" transform="translate(723,686.6) rotate(0)">
              <g transform="translate(-723,-686.599998)">
                <g>
                  <path d="M714.6,760.1c-.5-.2-1.6-17.7-1.6-21.2s14-3.5,14,0-1.2,17.5-1.2,18.6c0,1.2-10.8,2.8-11.2,2.6Z" fill="#ebbe83"/>
                  <path d="M723,669.6c-8.3,0-15.1,5.9-16.6,13.7c0,2.5.1,5,.2,7.2.1,2.4.1,4.6.2,6.5l1.8,40.1c0,1.7,1.1,3.1,2.7,3.6c2.3.6,6.2,1.3,11.7,1.1c0,0,1.7-.1,7.8-1.2c1.8-.4,3.2-2,3.4-3.9l5.1-45.4.7-5.8c-.6-8.8-7.9-15.9-17-15.9Z" fill="#d4e300"/>
                  <path d="M708.5,731.2c7.6,4.1,18,3.3,26.4.4" fill="none" stroke="#001d30" stroke-width="1.0896" stroke-linecap="round" stroke-linejoin="round"/>
                  <path d="M712,740.9c1,.2,10.6,2.6,20.3-1.2" fill="none" stroke="#001d30" stroke-width="1.0896" stroke-linecap="round" stroke-linejoin="round"/>
                </g>
                <g id="e3wXyRuxHEv27_tr" transform="translate(720,757.1) rotate(21.866929)">
                  <g transform="translate(-720,-757.099999)">
                    <path d="M712,755c-.5,5.4-.4,7.311842-.6,13.611842c0,.9.7,1.7,1.6,1.8c8,.4,26.8.45139,34.7-.74861c1.4-.2,2.7-2.763232,2.4-4.263232-.6-2.8-2.7-5.7-6.4-6.4s-9.1,1-15.9-4h-15.8Z" fill="#fff"/>
                    <path d="M731.8,757.1c-.9,1.9-2.6,2.8-4.1,2.6" fill="none" stroke="#001d30" stroke-width="1.0896" stroke-linecap="round" stroke-linejoin="round"/>
                    <path d="M736,758c-.7,1.4-1.4,2.8-3.3,3" fill="none" stroke="#001d30" stroke-width="1.0896" stroke-linecap="round" stroke-linejoin="round"/>
                    <path d="M739.5,758c-.5,2.1-1.6,3.3-3,3.7" fill="none" stroke="#001d30" stroke-width="1.0896" stroke-linecap="round" stroke-linejoin="round"/>
                  </g>
                </g>
              </g>
            </g>
            <g>
              <path d="M729.1,624.5c-24.3-2.1-22.7,26.4-22.7,26.4-.2,7.9-.2,21.2,0,32.5c0,2.5.1,5,.2,7.2c1.8,7.5,8.5,13,16.5,13c7.7,0,14.2-5.1,16.3-12.2l.7-5.8l1.3-11.1c.4-3.3,1.3-19.5,1.5-23.2.4-9,1.8-25.5-13.8-26.8Z" fill="#d4e300"/>
              <path d="M718.5,656.1c8.7,2.5,16.6-.6,21.9-6.5" fill="none" stroke="#001d30" stroke-width="1.0896" stroke-linecap="round" stroke-linejoin="round"/>
              <path d="M743.3,642.3c-.5,6-1.4,25-1.9,31.4" fill="none" stroke="#001d30" stroke-width="1.0896" stroke-linecap="round" stroke-linejoin="round"/>
              <path d="M706.1,658.7c.2,10.9.1,5.2.6,20.6" fill="none" stroke="#001d30" stroke-width="1.0896" stroke-linecap="round" stroke-linejoin="round"/>
            </g>
          </g>
        </g>
        <g id="e3wXyRuxHEv37_tr" transform="translate(722.9,642.3) rotate(12)">
          <g transform="translate(-722.9,-642.3)">
            <g id="e3wXyRuxHEv38_tr" transform="translate(723,686.6) rotate(10)">
              <g transform="translate(-723,-686.599998)">
                <g>
                  <path d="M714.6,760.1c-.5-.2-1.6-17.7-1.6-21.2s14-3.5,14,0-1.2,17.5-1.2,18.6c0,1.2-10.8,2.8-11.2,2.6Z" fill="#ebbe83"/>
                  <path d="M723,669.6c-8.3,0-15.1,5.9-16.6,13.7c0,2.5.1,5,.2,7.2.1,2.4.1,4.6.2,6.5l1.8,40.1c0,1.7,1.1,3.1,2.7,3.6c2.3.6,6.2,1.3,11.7,1.1c0,0,1.7-.1,7.8-1.2c1.8-.4,3.2-2,3.4-3.9l5.1-45.4.7-5.8c-.6-8.8-7.9-15.9-17-15.9Z" fill="#d4e300"/>
                  <path d="M708.5,731.2c7.6,4.1,18,3.3,26.4.4" fill="none" stroke="#001d30" stroke-width="1.0896" stroke-linecap="round" stroke-linejoin="round"/>
                  <path d="M712,740.9c1,.2,10.6,2.6,20.3-1.2" fill="none" stroke="#001d30" stroke-width="1.0896" stroke-linecap="round" stroke-linejoin="round"/>
                </g>
                <g id="e3wXyRuxHEv44_tr" transform="translate(720,757.1) rotate(-22)">
                  <g transform="translate(-720,-757.099999)">
                    <path d="M712,755c-.5,5.4-.4,7.311842-.6,13.611842c0,.9.7,1.7,1.6,1.8c8,.4,26.8.45139,34.7-.74861c1.4-.2,2.7-2.763232,2.4-4.263232-.6-2.8-2.7-5.7-6.4-6.4s-9.1,1-15.9-4h-15.8Z" fill="#fff"/>
                    <path d="M731.8,757.1c-.9,1.9-2.6,2.8-4.1,2.6" fill="none" stroke="#001d30" stroke-width="1.0896" stroke-linecap="round" stroke-linejoin="round"/>
                    <path d="M736,758c-.7,1.4-1.4,2.8-3.3,3" fill="none" stroke="#001d30" stroke-width="1.0896" stroke-linecap="round" stroke-linejoin="round"/>
                    <path d="M739.5,758c-.5,2.1-1.6,3.3-3,3.7" fill="none" stroke="#001d30" stroke-width="1.0896" stroke-linecap="round" stroke-linejoin="round"/>
                  </g>
                </g>
              </g>
            </g>
            <g transform="translate(-.127647 0.2867)">
              <path d="M729.1,624.5c-24.3-2.1-22.7,26.4-22.7,26.4-.2,7.9-.2,21.2,0,32.5c0,2.5.1,5,.2,7.2c1.8,7.5,8.5,13,16.5,13c7.7,0,14.2-5.1,16.3-12.2l.7-5.8l1.3-11.1c.4-3.3,1.3-19.5,1.5-23.2.4-9,1.8-25.5-13.8-26.8Z" fill="#d4e300"/>
              <path d="M718.5,656.1c8.7,2.5,16.6-.6,21.9-6.5" fill="none" stroke="#001d30" stroke-width="1.0896" stroke-linecap="round" stroke-linejoin="round"/>
              <path d="M743.3,642.3c-.5,6-1.4,25-1.9,31.4" fill="none" stroke="#001d30" stroke-width="1.0896" stroke-linecap="round" stroke-linejoin="round"/>
              <path d="M706.1,658.7c.2,10.9.1,5.2.6,20.6" fill="none" stroke="#001d30" stroke-width="1.0896" stroke-linecap="round" stroke-linejoin="round"/>
            </g>
          </g>
        </g>
        <path d="M701.6,614.4c-.6,2.6-3.9,25.3-3.4,35c0,.6.4,1.1,1,1.3c4.6,1.5,24.1,7.1,49.4-.9.7-.2,1.1-.9,1-1.6-.7-5.7-5-44.2-7.1-52s-5.4-19.9-9.8-23.7c-.3-.3-.8-.4-1.2-.3-3.6,1.6-9.4,2.1-14.1.1-.4-.1-.8.1-1.2.3.1,0-6.9,6-14.6,41.8Z" fill="#001d2f"/>
        <g id="e3wXyRuxHEv55_tr" transform="translate(715.7,584.014711) rotate(0)">
          <g transform="translate(-715.699988,-584.014711)">
            <g>
              <g id="e3wXyRuxHEv57_tr" transform="translate(761.215959,596.167947) rotate(0)">
                <g transform="translate(-761.215959,-596.167947)">
                  <path d="M760.9,588.1l5.8-21.4c.3-1.1,1.4-1.7,2.5-1.4s1.7,1.4,1.4,2.5l-5.8,21.4c-.3,1.1-1.4,1.7-2.5,1.4-1-.3-1.7-1.5-1.4-2.5Z" fill="#001d30"/>
                  <path d="M757.7,599.6c-1.8-2.4.9-6.5.9-6.5.4-.4,1-10.4,2.6-8.9c1.6,1.6.7,7.2,1.6,5.7c2.8-4.3,5.2-15.9,7.8-13c6,6.6-3.5,19.3-7.4,23-.9,1-3.6,2.1-5.5-.3Z" fill="#ebbe83"/>
                </g>
              </g>
              <g>
                <path d="M763.2,599.9c0,0-7,10.5-12.7,15.3-4,3.4-8.4,6.2-13.4,7.9-4.9,1.7-10.3,2.2-15.4,1.2-2.1-.4-4.2-1.2-6-2.4-1.6-1.2-3.1-2.7-4.2-4.3-2.2-3.2-3.8-6.8-4.7-10.6c0,0,8.1-7.8,16.6-.5l.8.7c0,0,2.1,2.4,2.7,2.4c3.2-.1,6.4-1,9.3-2.4c3.9-2,7.7-4.1,11.5-6.3c3.3-1.9,8-5.2,10.8-7.7c0,0,4-3.7,6.4-.7c2.6,2.9-1.7,7.4-1.7,7.4Z" fill="#ebbe83"/>
                <path d="M724.4,620.2c1.8,1.3,4.3,1.3,6.1,0" fill="none" stroke="#001d30" stroke-width="1.0896" stroke-linecap="round" stroke-linejoin="round"/>
              </g>
            </g>
            <g>
              <path d="M706,585.3c-4.1,7.5-6.6,16.1-7.9,24.8-.1.6.2,1.2.7,1.5c2.6,1.2,8.2,2.3,8.2,2.3c4.7.8,7.7.6,12.4-.4c4.7-1.1,9.2-3.4,12.3-7.1.1-.1.1-.2.2-.3.7-1.1.7-2.5.2-3.6-1.5-3-4.2-9.4-5-11.2-1.6-3.8-3.7-15.5-9.7-15.8-6.1-.3-11.4,9.8-11.4,9.8Z" fill="#001d2f"/>
              <path d="M707,613.9c4.7.8,7.7.6,12.4-.4c4.7-1.1,9.2-3.4,12.3-7.1.1-.1.1-.2.2-.3.7-1.1.7-2.5.2-3.6-1.5-3-4-9.9-5-11.2" fill="none" stroke="#fff" stroke-width="1.0896" stroke-linecap="round" stroke-linejoin="round"/>
            </g>
          </g>
        </g>
      </g>
    </g>
    <rect width="0.4" height="0.4" rx="0" ry="0" transform="translate(722.8 686.4)" fill="none" stroke="#001d30" stroke-width="0.5" stroke-linecap="round" stroke-linejoin="round"/>
  </g>
</svg>